<?xml version="1.0"?>
<svg xmlns="http://www.w3.org/2000/svg" xmlns:xlink="http://www.w3.org/1999/xlink" version="1.1" id="Layer_1" x="0px" y="0px" viewBox="0 0 512 512" style="enable-background:new 0 0 512 512;" xml:space="preserve" width="512px" height="512px" class=""><g><g>
	<g>
		<g>
			<path d="M128,245.336h64v-64h-64V245.336z M149.328,202.664h21.344v21.328h-21.344V202.664z" data-original="#000000" class="active-path" data-old_color="#000000" fill="#21FF21"/>
			<path d="M469.328,266.664v-85.328h-42.656v-42.672H384v-21.328h42.672v-64h-64v42.656H320v42.672H192V95.992h-42.672V53.336h-64     v64H128v21.328H85.328v42.672H42.672v85.328H0v149.328h64v-85.328h21.328v85.328H128v42.672h106.672v-64h-85.344v-21.328h213.344     v21.328h-85.344v64H384v-42.672h42.672v-85.328H448v85.328h64V266.664H469.328z M384,74.664h21.328v21.328H384V74.664z      M362.672,437.336h-64v-21.344h64V437.336z M106.672,95.992V74.664H128v21.328H106.672z M213.328,415.992v21.344h-64v-21.344     H213.328z M490.672,394.664h-21.344v-85.328h-64v85.328H384v-42.672H128v42.672h-21.328v-85.328h-64v85.328H21.328V287.992H64     v-85.328h42.672v-42.672h42.656v-42.656h21.344v42.656h170.656v-42.656h21.344v42.656h42.656v42.672H448v85.328h42.672V394.664z" data-original="#000000" class="active-path" data-old_color="#000000" fill="#21FF21"/>
			<path d="M320,245.336h64v-64h-64V245.336z M341.328,202.664h21.344v21.328h-21.344V202.664z" data-original="#000000" class="active-path" data-old_color="#000000" fill="#21FF21"/>
		</g>
	</g>
</g></g> </svg>
