<?xml version="1.0"?>
<svg xmlns="http://www.w3.org/2000/svg" height="512px" viewBox="-76 0 480 480" width="512px"><path d="m8 0c-4.417969 0-8 3.582031-8 8v464c0 4.417969 3.582031 8 8 8h312c4.417969 0 8-3.582031 8-8v-464c0-4.417969-3.582031-8-8-8zm304 464h-296v-448h296zm0 0" fill="#FFFFFF"/><path d="m41.726562 280h246.273438c4.417969 0 8-3.582031 8-8v-232c0-4.417969-3.582031-8-8-8h-246.273438c-4.417968 0-8 3.582031-8 8v232c0 4.417969 3.582032 8 8 8zm8-232h230.273438v216h-230.273438zm0 0" fill="#FFFFFF"/><path d="m40 376h24v24c0 4.417969 3.582031 8 8 8h32c4.417969 0 8-3.582031 8-8v-24h24c4.417969 0 8-3.582031 8-8v-32c0-4.417969-3.582031-8-8-8h-24v-24c0-4.417969-3.582031-8-8-8h-32c-4.417969 0-8 3.582031-8 8v24h-24c-4.417969 0-8 3.582031-8 8v32c0 4.417969 3.582031 8 8 8zm8-32h24c4.417969 0 8-3.582031 8-8v-24h16v24c0 4.417969 3.582031 8 8 8h24v16h-24c-4.417969 0-8 3.582031-8 8v24h-16v-24c0-4.417969-3.582031-8-8-8h-24zm0 0" fill="#FFFFFF"/><path d="m196 320c-15.464844 0-28 12.535156-28 28s12.535156 28 28 28 28-12.535156 28-28-12.535156-28-28-28zm0 40c-6.628906 0-12-5.371094-12-12s5.371094-12 12-12 12 5.371094 12 12-5.371094 12-12 12zm0 0" fill="#FFFFFF"/><path d="m268 296c-15.464844 0-28 12.535156-28 28s12.535156 28 28 28 28-12.535156 28-28-12.535156-28-28-28zm0 40c-6.628906 0-12-5.371094-12-12s5.371094-12 12-12 12 5.371094 12 12-5.371094 12-12 12zm0 0" fill="#FFFFFF"/><path d="m122.34375 434.339844 24.003906-24.003906 11.3125 11.316406-24 24zm0 0" fill="#FFFFFF"/><path d="m178.34375 434.339844 24-24 11.316406 11.3125-24.003906 24.003906zm0 0" fill="#FFFFFF"/></svg>
