<?xml version="1.0" encoding="iso-8859-1"?>
<!-- Generator: Adobe Illustrator 19.0.0, SVG Export Plug-In . SVG Version: 6.00 Build 0)  -->
<svg version="1.1" id="Layer_1" xmlns="http://www.w3.org/2000/svg" xmlns:xlink="http://www.w3.org/1999/xlink" x="0px" y="0px"
	 viewBox="0 0 512 512" style="enable-background:new 0 0 512 512;" xml:space="preserve">
<polygon style="fill:#2488FF;" points="445.217,161.391 445.217,94.609 411.826,94.609 411.826,61.217 378.435,61.217 
	378.435,27.826 256,27.826 256,61.217 222.609,61.217 222.609,94.609 189.217,94.609 189.217,161.391 144.696,161.391 144.696,128 
	100.174,128 100.174,94.609 66.783,94.609 66.783,61.217 0,61.217 0,250.435 33.391,250.435 33.391,283.826 66.783,283.826 
	66.783,317.217 100.174,317.217 100.174,384 66.783,384 66.783,417.391 33.391,417.391 33.391,484.174 345.043,484.174 
	345.043,450.783 378.435,450.783 378.435,417.391 411.826,417.391 411.826,384 445.217,384 445.217,261.565 478.609,261.565 
	478.609,228.174 512,228.174 512,161.391 "/>
<g>
	<polygon style="fill:#FFFFFF;" points="100.174,128 100.174,94.609 66.783,94.609 66.783,61.217 0,61.217 0,128 66.783,128 
		66.783,161.391 100.174,161.391 100.174,194.783 144.696,194.783 144.696,128 	"/>
	<polygon style="fill:#FFFFFF;" points="133.565,317.217 133.565,350.609 100.174,350.609 100.174,384 66.783,384 66.783,417.391 
		33.391,417.391 33.391,484.174 100.174,484.174 100.174,417.391 133.565,417.391 133.565,384 166.957,384 166.957,317.217 	"/>
	<polygon style="fill:#FFFFFF;" points="256,27.826 256,61.217 222.609,61.217 222.609,94.609 189.217,94.609 189.217,128 256,128 
		256,94.609 289.391,94.609 289.391,27.826 	"/>
</g>
<rect x="256" y="27.826" width="122.435" height="33.391"/>
<polygon points="133.565,350.609 166.957,350.609 166.957,317.217 100.174,317.217 100.174,384 133.565,384 "/>
<polygon points="66.783,417.391 33.391,417.391 33.391,484.174 345.043,484.174 345.043,450.783 66.783,450.783 "/>
<rect x="222.609" y="61.217" width="33.391" height="33.391"/>
<polygon points="222.609,194.783 222.609,94.609 189.217,94.609 189.217,161.391 144.696,161.391 144.696,194.783 "/>
<rect x="378.435" y="61.217" width="33.391" height="33.391"/>
<polygon points="445.217,161.391 445.217,94.609 411.826,94.609 411.826,194.783 478.609,194.783 478.609,228.174 512,228.174 
	512,161.391 "/>
<rect x="378.435" y="384" width="33.391" height="33.391"/>
<rect x="66.783" y="384" width="33.391" height="33.391"/>
<rect x="345.043" y="417.391" width="33.391" height="33.391"/>
<rect x="445.217" y="228.174" width="33.391" height="33.391"/>
<rect x="411.826" y="261.565" width="33.391" height="122.435"/>
<rect x="100.174" y="128" width="44.522" height="33.391"/>
<rect x="66.783" y="94.609" width="33.391" height="33.391"/>
<polygon points="66.783,94.609 66.783,61.217 0,61.217 0,250.435 33.391,250.435 33.391,94.609 "/>
<rect x="33.391" y="250.435" width="33.391" height="33.391"/>
<rect x="66.783" y="283.826" width="33.391" height="33.391"/>
<g>
</g>
<g>
</g>
<g>
</g>
<g>
</g>
<g>
</g>
<g>
</g>
<g>
</g>
<g>
</g>
<g>
</g>
<g>
</g>
<g>
</g>
<g>
</g>
<g>
</g>
<g>
</g>
<g>
</g>
</svg>
